<svg xmlns="http://www.w3.org/2000/svg" viewBox="0 0 1422 800">
  <defs>
    <linearGradient id="a" x1="50%" x2="50%" y1="0%" y2="100%">
      <stop offset="0%" stop-color="hsl(206, 75%, 49%)"/>
      <stop offset="100%" stop-color="hsl(331, 90%, 56%)"/>
    </linearGradient>
  </defs>
  <g fill="none" stroke="url(#a)" stroke-linecap="round" stroke-width="2">
    <path stroke-dasharray="1 9" d="M713.59 99.99c9.93-.27 20.08.46 30.43 2.16 10.37 2.17 20.95 5.21 31.72 9.04 10.8 4.13 21.78 8.9 32.87 14.2 11.08 5.38 22.21 11.14 33.28 17.18 10.93 5.92 21.66 12 32.03 18.19 10 5.92 19.4 11.87 28.02 17.85 7.95 5.64 14.87 11.29 20.57 16.97 6.59 8.06 11.85 24.2 10.98 32.46-1.13 5.39-2.77 11.01-4.55 16.9-.98 5.77-1.33 11.86-.65 18.27 2.48 6.36 6.55 13.07 12.37 20.12 7.87 7.04 17.34 14.43 28.1 22.17 11.83 7.74 23.91 15.82 35.54 24.23 10.75 8.4 19.65 17.13 25.99 26.16 3.74 9.03 4.15 18.37 1.09 28-5.78 9.63-14.23 19.35-24.6 29.12-11.19 9.79-22.75 19.67-33.89 29.61-9.81 9.98-18.09 20.06-24.5 30.22-4.06 10.24-6.16 20.58-6.53 31.01 1.54 10.51 4.07 21.12 7.1 31.78 3.66 10.73 6.88 21.48 9.24 32.18 1.78 10.69 2.09 21.24.79 31.57-2.48 10.15-6.68 19.94-12.48 29.22-6.94 8.89-15.22 17.1-24.6 24.49a186.132 186.132 0 0 1-32.31 17.26c-11.64 3.94-23.47 6.7-35.31 8.23-11.85.81-23.56.47-35.05-.96-11.36-1.88-22.48-4.59-33.32-7.97-10.7-3.32-21.17-6.91-31.41-10.57-10.15-2.98-20.13-5.62-29.93-7.72-9.77-.94-19.42-1.09-28.93-.41-9.51 2-18.68 4.69-27.51 7.95-8.84 4.14-17.34 8.45-25.49 12.69-8.16 4.49-15.97 8.47-23.41 11.72-7.46 2.91-14.58 4.75-21.36 5.43-6.84-.06-13.39-1.44-19.67-4.1-6.43-3.52-12.67-8.29-18.76-14.21-6.37-6.64-12.67-14.25-18.95-22.69-6.66-8.92-13.37-18.46-20.14-28.45-7.16-10.22-14.37-20.73-21.61-31.39-7.5-10.69-14.91-21.42-22.13-32.13-7.24-10.62-14.11-21.15-20.48-31.58-6.08-10.29-11.49-20.48-16.09-30.55-4.13-9.94-7.38-19.8-9.71-29.58-1.87-9.69-2.91-19.34-3.16-28.95-.05-9.56.47-19.12 1.44-28.67.78-9.54 1.76-19.08 2.84-28.63.58-9.54 1.13-18.86 1.64-27.94.01-9.08.08-17.9.3-26.45-.01-8.54.37-16.78 1.22-24.71.99-7.9 2.69-15.46 5.15-22.66 2.88-7.17 6.63-13.98 11.22-20.39 5.08-6.41 10.95-12.45 17.53-18.11 6.93-5.69 14.42-11.04 22.34-16.06 8.02-5.13 16.32-9.99 24.78-14.61a931.76 931.76 0 0 1 25.09-13.98c8.11-4.81 16.19-9.55 24.24-14.25 7.73-5.05 15.47-10.1 23.23-15.14 7.5-5.41 15.09-10.79 22.82-16.11a485.84 485.84 0 0 1 23.25-16.29c7.86-5.33 16.01-10.3 24.47-14.81 8.41-4.37 17.16-8.12 26.3-11.12 9.1-2.63 18.62-4.39 28.55-5.19" opacity=".62"/>
    <path stroke-dasharray="5 6" d="M740.736 111.97c9.706.404 19.514 1.778 29.406 4.081 9.88 2.763 19.86 6.375 29.907 10.754 10.015 4.677 20.085 10 30.118 15.841a563.908 563.908 0 0 1 29.503 18.886c9.475 6.513 18.597 13.193 27.231 19.968 8.242 6.507 15.8 13.035 22.5 19.533 6.101 6.156 11.183 12.269 15.107 18.32 4.26 8.522 6.25 25.053 4.639 33.25-1.993 8.06-4.386 25.193-2.84 34.536 3.097 6.394 7.648 13.211 13.742 20.459 7.853 7.331 17.01 15.085 27.13 23.249 10.9 8.198 21.815 16.728 32.1 25.545 9.348 8.73 16.857 17.671 21.93 26.751 2.689 8.902 2.284 17.906-1.316 27.005-6.073 8.914-14.609 17.775-24.975 26.576-11.185 8.764-22.846 17.594-34.284 26.53-10.353 9.044-19.447 18.286-26.97 27.72-5.442 9.63-9.125 19.475-11.177 29.515-.23 10.22.602 20.564 2.093 30.975 2.296 10.488 4.446 20.925 6.054 31.234 1.334 10.21 1.544 20.149.458 29.706a84.494 84.494 0 0 1-10.396 26.122c-5.912 7.623-13.101 14.463-21.37 20.396-8.996 5.309-18.783 9.6-29.115 12.81a160.488 160.488 0 0 1-32.786 4.18 187.795 187.795 0 0 1-33.218-4.04c-10.89-2.654-21.549-6.023-31.968-9.947-10.34-3.788-20.453-7.78-30.325-11.795-9.859-3.343-19.54-6.363-29.046-8.879-9.552-1.446-18.984-2.183-28.288-2.158a199.689 199.689 0 0 0-27.152 5.45c-8.789 3.22-17.238 6.602-25.315 9.962-8.127 3.646-15.883 6.868-23.246 9.485-7.414 2.354-14.443 3.802-21.1 4.234-6.733-.204-13.132-1.569-19.239-4.105-6.252-3.309-12.293-7.776-18.157-13.313-6.105-6.245-12.123-13.447-18.103-21.468-6.294-8.535-12.592-17.722-18.915-27.421-6.632-9.992-13.26-20.335-19.851-30.915-6.766-10.664-13.383-21.437-19.748-32.242-6.308-10.751-12.198-21.453-17.555-32.046-5.045-10.482-9.386-20.833-12.937-31.029-3.068-10.061-5.285-19.982-6.63-29.74-.903-9.658-1.02-19.2-.405-28.62.792-9.368 2.1-18.659 3.813-27.871 1.522-9.206 3.213-18.38 4.98-27.498a3123.421 3123.421 0 0 0 3.568-26.685c.603-8.669 1.236-17.065 1.948-25.165.463-8.117 1.243-15.902 2.42-23.327 1.275-7.419 3.176-14.462 5.76-21.097 2.964-6.618 6.73-12.818 11.28-18.611 5.028-5.77 10.832-11.155 17.32-16.14 6.88-5.028 14.33-9.715 22.247-14.088 8.107-4.49 16.516-8.728 25.151-12.75 8.6-4.244 17.31-8.34 26.053-12.325a4055.254 4055.254 0 0 1 25.68-12.722c8.312-4.556 16.614-9.112 24.913-13.639 8.094-4.872 16.235-9.71 24.46-14.453 8.05-4.985 16.24-9.81 24.604-14.382 8.237-4.641 16.698-8.905 25.386-12.683 8.618-3.632 17.501-6.633 26.663-8.893 9.107-1.904 18.533-2.932 28.263-3.027" opacity=".33"/>
    <path stroke-dasharray="3 6" d="M765.269 126.089c9.395 1.05 18.772 3.018 28.104 5.868 9.281 3.277 18.527 7.377 27.7 12.205 9.111 5.111 18.115 10.843 26.946 17.077a400.827 400.827 0 0 1 25.344 20.05c7.93 6.894 15.383 13.941 22.241 21.056 6.5 6.862 12.254 13.718 17.15 20.494 4.388 6.44 7.82 12.786 10.21 19.004 2.334 8.745 1.936 25.424-.02 33.58-1.737 8.036-2.54 25.214-.047 34.698 3.599 6.591 8.494 13.66 14.686 21.195 7.685 7.696 16.365 15.847 25.715 24.406 9.899 8.607 19.594 17.508 28.521 26.623 7.97 8.96 14.133 17.985 18.003 27.009 1.693 8.704.54 17.328-3.54 25.86-6.299 8.225-14.88 16.239-25.168 24.1-11.111 7.766-22.763 15.566-34.347 23.456-10.748 8.05-20.5 16.33-28.935 24.88-6.637 8.835-11.72 17.961-15.316 27.349-1.885 9.65-2.684 19.476-2.726 29.378.893 10.005 1.876 19.942 2.613 29.692.733 9.629.66 18.9-.386 27.69-1.684 8.448-4.58 16.258-8.694 23.32-4.929 6.543-11.005 12.205-18.087 16.916-7.741 4.083-16.265 7.135-25.383 9.113-9.503 1.338-19.358 1.605-29.4.836-10.178-1.304-20.387-3.52-30.497-6.582-10.126-3.306-20.105-7.218-29.879-11.585-9.766-4.204-19.35-8.544-28.746-12.868-9.425-3.691-18.714-7.06-27.865-9.975-9.25-1.93-18.42-3.221-27.473-3.84a212.601 212.601 0 0 0-26.696 3.068c-8.722 2.317-17.106 4.814-25.14 7.33-8.114 2.797-15.857 5.263-23.218 7.238-7.424 1.784-14.455 2.786-21.12 2.92-6.72-.398-13.113-1.831-19.195-4.31-6.205-3.174-12.17-7.405-17.941-12.638-5.97-5.897-11.81-12.716-17.566-20.34-5.995-8.144-11.944-16.968-17.846-26.33-6.128-9.698-12.17-19.787-18.102-30.154a779.874 779.874 0 0 1-17.278-31.895c-5.348-10.708-10.225-21.39-14.542-31.961-3.958-10.47-7.23-20.793-9.709-30.932-2.015-9.993-3.219-19.8-3.594-29.397.023-9.481.789-18.786 2.225-27.904 1.58-9.068 3.625-18 6.037-26.808 2.202-8.818 4.543-17.556 6.933-26.206a2443.585 2443.585 0 0 0 5.349-25.37c1.16-8.248 2.303-16.227 3.48-23.878.902-7.7 2.038-15.063 3.514-22.045 1.537-6.983 3.603-13.568 6.266-19.735a82.653 82.653 0 0 1 11.183-17.088c4.905-5.242 10.55-10.067 16.856-14.504 6.723-4.46 14.024-8.574 21.816-12.377 8.04-3.919 16.44-7.594 25.104-11.061 8.734-3.68 17.62-7.225 26.595-10.678a3473.635 3473.635 0 0 1 26.775-11.097c8.79-4.004 17.568-7.99 26.34-11.946 8.615-4.262 17.264-8.478 25.946-12.578 8.531-4.314 17.157-8.442 25.875-12.295 8.605-3.91 17.346-7.426 26.23-10.447 8.79-2.873 17.766-5.124 26.91-6.644a146.405 146.405 0 0 1 27.789-.943" opacity=".53"/>
    <path stroke-dasharray="6 0" d="M786.488 141.876c8.997 1.635 17.841 4.128 26.528 7.446 8.582 3.714 17.001 8.182 25.204 13.328 8.11 5.434 15.966 11.428 23.518 17.887a295.664 295.664 0 0 1 21.058 20.631c6.367 7.075 12.186 14.267 17.364 21.495 4.848 7.004 8.958 13.962 12.233 20.812 2.893 6.533 4.915 12.93 6.05 19.168.849 8.815-1.108 25.547-3.083 33.745-.9 5.38-1.646 10.948-1.983 16.757.738 5.897 2.276 12.17 4.805 18.87 3.947 6.912 8.997 14.307 15.126 22.2 7.335 8.09 15.403 16.625 23.89 25.545 8.797 8.947 17.238 18.124 24.815 27.422 6.615 9.06 11.491 18.075 14.221 26.936.766 8.439-1.066 16.637-5.557 24.592-6.482 7.516-15.045 14.719-25.192 21.673-10.95 6.793-22.49 13.57-34.106 20.414-10.973 6.993-21.194 14.248-30.34 21.786-7.624 7.875-13.9 16.1-18.858 24.61-3.37 8.838-5.674 17.897-7.169 27.047-.496 9.313-.709 18.544-.929 27.57.015 8.932-.476 17.458-1.65 25.45-1.53 7.65-3.994 14.597-7.44 20.74-4.05 5.615-9.078 10.314-14.99 14.026-6.465 3.101-13.67 5.175-21.458 6.192-8.16.416-16.708-.161-25.505-1.733-8.976-2.02-18.06-4.87-27.133-8.486-9.15-3.776-18.238-8.09-27.192-12.784-9.025-4.506-17.925-9.117-26.7-13.692-8.884-3.973-17.675-7.662-26.373-10.93-8.869-2.376-17.695-4.19-26.455-5.405a225 225 0 0 0-26.117.784c-8.605 1.445-16.913 3.077-24.901 4.747-8.103 1.962-15.865 3.67-23.252 4.969-7.464 1.179-14.56 1.69-21.291 1.462-6.799-.683-13.249-2.272-19.4-4.78-6.234-3.118-12.209-7.204-17.967-12.204-5.891-5.622-11.607-12.107-17.194-19.382-5.735-7.778-11.359-16.216-16.862-25.212-5.615-9.337-11.077-19.102-16.332-29.16a552.655 552.655 0 0 1-14.769-31.104c-4.374-10.492-8.243-20.958-11.52-31.326-2.9-10.258-5.107-20.367-6.552-30.26-.994-9.757-1.218-19.286-.667-28.568a182.949 182.949 0 0 1 4.687-26.824c2.3-8.66 5.014-17.16 8.05-25.487 2.82-8.365 5.74-16.626 8.687-24.779a1769.536 1769.536 0 0 0 6.976-23.96c1.681-7.83 3.3-15.369 4.905-22.603 1.313-7.307 2.808-14.269 4.559-20.848 1.764-6.596 3.972-12.78 6.713-18.544a78.566 78.566 0 0 1 10.992-15.845c4.736-4.813 10.168-9.2 16.228-13.176 6.484-3.998 13.555-7.634 21.112-10.962 7.864-3.425 16.135-6.6 24.7-9.567 8.717-3.16 17.65-6.182 26.716-9.104a2208.66 2208.66 0 0 1 27.441-9.428c9.128-3.4 18.268-6.766 27.402-10.102a1515.574 1515.574 0 0 1 27.126-10.53c8.931-3.584 17.901-6.966 26.903-10.066 8.907-3.14 17.86-5.87 26.875-8.128 8.92-2.104 17.903-3.591 26.962-4.387 8.959-.47 17.99-.136 27.091 1.062" opacity=".17"/>
    <path stroke-dasharray="7 4" d="M803.883 158.686a142.443 142.443 0 0 1 24.73 8.79c7.84 4.063 15.36 8.793 22.554 14.147a203.418 203.418 0 0 1 20.026 18.234 221.167 221.167 0 0 1 16.883 20.676c4.908 7.065 9.208 14.214 12.862 21.364 3.388 6.957 6.054 13.852 7.968 20.612 1.65 6.485 2.563 12.82 2.752 18.996-.224 8.785-3.01 25.625-4.76 33.957-.589 5.556-.888 11.33-.711 17.369 1.233 6.198 3.227 12.793 6.101 19.831 4.123 7.296 9.154 15.084 15.014 23.352 6.844 8.469 14.162 17.347 21.67 26.54 7.65 9.202 14.814 18.545 21.056 27.902 5.294 9.072 8.955 17.962 10.61 26.584-.086 8.095-2.523 15.823-7.37 23.174-6.593 6.835-15.083 13.245-25.036 19.315-10.714 5.86-22.048 11.633-33.566 17.427-11.04 5.942-21.54 12.103-31.193 18.54-8.375 6.808-15.614 13.967-21.691 21.43-4.66 7.853-8.311 15.926-11.125 24.127-1.792 8.414-3.17 16.76-4.355 24.912-.774 8.095-1.788 15.797-3.213 22.943-1.535 6.843-3.74 12.982-6.672 18.285-5.38 6.78-20.509 14.651-29.923 15.63-6.785-.228-13.978-1.417-21.448-3.519-7.67-2.493-15.502-5.752-23.415-9.7-8.033-4.077-16.078-8.615-24.105-13.502-8.13-4.678-16.23-9.451-24.29-14.192-8.208-4.19-16.409-8.117-24.586-11.695-8.4-2.777-16.804-5.067-25.22-6.85a247.685 247.685 0 0 0-25.35-1.37c-8.455.612-16.649 1.403-24.568 2.252-8.063 1.13-15.818 2.06-23.25 2.664-7.512.52-14.678.495-21.5-.18-6.876-1.025-13.427-2.85-19.659-5.489-6.29-3.155-12.298-7.176-18.062-12.043-5.832-5.417-11.444-11.634-16.863-18.587-5.49-7.422-10.786-15.484-15.872-24.09-5.105-8.934-9.974-18.288-14.557-27.946a405.057 405.057 0 0 1-12.269-29.916c-3.423-10.102-6.311-20.184-8.572-30.168-1.886-9.875-3.08-19.591-3.538-29.073-.042-9.341.638-18.442 2.04-27.27a185.117 185.117 0 0 1 6.907-25.38c2.95-8.172 6.264-16.156 9.856-23.954 3.36-7.855 6.799-15.594 10.237-23.218a1441.04 1441.04 0 0 0 8.436-22.501c2.162-7.39 4.221-14.498 6.23-21.319 1.712-6.917 3.533-13.49 5.552-19.703 1.99-6.253 4.35-12.098 7.147-17.513a77.591 77.591 0 0 1 10.79-14.853c4.554-4.47 9.742-8.505 15.522-12.14 6.202-3.617 12.959-6.886 20.216-9.832 7.605-3.002 15.62-5.76 23.975-8.295 8.58-2.699 17.417-5.24 26.429-7.667 9.107-2.65 18.34-5.232 27.64-7.754 9.304-2.79 18.655-5.526 27.996-8.192a1266.412 1266.412 0 0 1 27.887-8.39c9.218-2.815 18.416-5.418 27.584-7.738 9.097-2.33 18.17-4.283 27.206-5.756 8.945-1.333 17.865-2.08 26.732-2.176a148.904 148.904 0 0 1 26.13 2.918" opacity=".45"/>
    <path stroke-dasharray="3 4" d="M817.265 175.878a133.123 133.123 0 0 1 22.76 9.876 143.087 143.087 0 0 1 19.836 14.608 162.589 162.589 0 0 1 16.653 18.19c4.892 6.541 9.258 13.326 13.043 20.27 3.6 6.897 6.58 13.854 8.93 20.792 2.148 6.79 3.646 13.489 4.488 20.064.7 6.352.777 12.571.302 18.64-.91 8.755-3.953 25.803-5.344 34.39a131.475 131.475 0 0 0 .501 18.246c1.588 6.573 3.875 13.562 6.927 20.993 4.104 7.7 8.926 15.879 14.368 24.488 6.183 8.796 12.634 17.935 19.1 27.325 6.46 9.346 12.34 18.734 17.28 28.042 4.036 8.954 6.534 17.63 7.215 25.915-.873 7.702-3.852 14.928-8.978 21.652-6.66 6.17-15.022 11.81-24.709 17.025-10.404 4.963-21.441 9.767-32.731 14.532-10.958 4.876-21.557 9.937-31.496 15.231-8.895 5.668-16.856 11.667-23.817 17.96-5.709 6.712-10.479 13.652-14.436 20.731-2.96 7.35-5.403 14.656-7.515 21.785-1.587 7.152-3.185 13.927-4.944 20.185-2.738 8.689-10.834 21.629-16.44 25.512-6.607 2.172-22.633.986-31.725-2.19-6.358-2.733-12.927-6.194-19.641-10.273-6.85-4.172-13.818-8.781-20.825-13.715-7.163-4.713-14.393-9.536-21.651-14.337-7.46-4.312-14.997-8.416-22.577-12.228a252.168 252.168 0 0 0-23.754-8.1 273.123 273.123 0 0 0-24.392-3.381c-8.22-.19-16.246-.213-24.053-.166-7.966.308-15.671.457-23.1.345-7.509-.152-14.71-.766-21.593-1.924-6.925-1.45-13.535-3.584-19.832-6.423-6.315-3.283-12.341-7.322-18.078-12.118-5.744-5.268-11.229-11.27-16.446-17.942-5.214-7.087-10.156-14.765-14.818-22.948-4.591-8.488-8.858-17.367-12.774-26.533a318.064 318.064 0 0 1-9.838-28.372c-2.508-9.575-4.45-19.123-5.777-28.551-.933-9.337-1.195-18.5-.759-27.419a162.046 162.046 0 0 1 4.465-25.57 186.527 186.527 0 0 1 8.86-23.646c3.508-7.596 7.33-15.001 11.38-22.217 3.822-7.288 7.71-14.467 11.58-21.536 3.427-7.231 6.67-14.221 9.729-20.97 2.602-6.928 5.08-13.603 7.466-20.003 2.087-6.541 4.233-12.752 6.512-18.627 2.223-5.926 4.732-11.471 7.598-16.597 3.053-5.11 6.589-9.797 10.624-14.045 4.381-4.206 9.32-7.983 14.811-11.354 5.887-3.343 12.313-6.328 19.218-8.966 7.265-2.687 14.951-5.101 23.007-7.273 8.315-2.3 16.916-4.42 25.741-6.395 8.988-2.16 18.128-4.21 27.37-6.19a1665.401 1665.401 0 0 1 28.093-6.297 1126.87 1126.87 0 0 1 28.15-6.222c9.33-2.045 18.608-3.863 27.809-5.41 9.14-1.529 18.19-2.696 27.13-3.423 8.864-.575 17.594-.613 26.188-.05 8.472.836 16.787 2.361 24.909 4.614" opacity=".42"/>
    <path stroke-dasharray="4 7" d="M826.707 192.807c7.394 2.99 14.29 6.577 20.687 10.708a122.923 122.923 0 0 1 17.196 14.76 133.292 133.292 0 0 1 13.546 17.802 136.588 136.588 0 0 1 9.682 19.538c2.503 6.643 4.4 13.32 5.698 19.959a113.592 113.592 0 0 1 1.837 19.328c.01 6.19-.46 12.273-1.35 18.244-.75 5.858-1.786 11.665-2.975 17.447-.808 5.789-1.572 11.652-2.174 17.665.075 6.142.523 12.551 1.45 19.285 1.814 6.98 4.222 14.37 7.252 22.184 3.9 8.095 8.337 16.606 13.196 25.495 5.393 9.042 10.896 18.352 16.253 27.815 5.259 9.365 9.88 18.684 13.573 27.826 2.843 8.738 4.265 17.099 4.044 24.972-1.577 7.252-5.016 13.94-10.35 20.038-6.674 5.494-14.858 10.396-24.222 14.8-10.024 4.118-20.675 7.996-31.618 11.766-10.747 3.847-21.252 7.814-31.275 11.954-9.199 4.5-17.625 9.282-25.199 14.338-6.504 5.483-12.167 11.192-17.059 17.039-3.948 6.162-7.328 12.306-10.267 18.32-3.453 8.984-9.716 24.6-13.171 30.666-8.762 7.087-26.42 7.406-33.714 4.023-5.13-2.782-10.503-6.243-16.052-10.287-5.712-4.096-11.584-8.616-17.577-13.452-6.185-4.628-12.51-9.384-18.934-14.163-6.67-4.33-13.479-8.525-20.417-12.505a272.755 272.755 0 0 0-22.105-9.141 317.003 317.003 0 0 0-23.222-5.203c-7.906-.927-15.68-1.708-23.302-2.442-7.79-.48-15.369-1.086-22.712-1.924-7.423-.831-14.59-2.062-21.466-3.743-6.894-1.91-13.485-4.394-19.765-7.496-6.272-3.46-12.227-7.578-17.872-12.357-5.604-5.166-10.893-10.98-15.861-17.385-4.894-6.765-9.451-14.06-13.655-21.798a248.397 248.397 0 0 1-10.962-24.928c-3.004-8.722-5.535-17.593-7.526-26.518-1.669-8.91-2.75-17.787-3.213-26.55-.083-8.657.477-17.135 1.7-25.38 1.582-8.094 3.774-15.957 6.568-23.527a185.602 185.602 0 0 1 10.48-21.668c3.961-6.946 8.198-13.724 12.625-20.318 4.204-6.683 8.453-13.27 12.679-19.756 3.816-6.672 7.451-13.14 10.868-19.388 3.005-6.455 5.854-12.685 8.592-18.668 2.45-6.146 4.91-12.002 7.451-17.548 3.801-8.247 12.947-22.86 18.623-29.133 4.224-3.998 8.943-7.587 14.15-10.77 5.579-3.136 11.643-5.911 18.177-8.343 6.888-2.437 14.195-4.586 21.857-6.477 7.967-1.962 16.239-3.721 24.75-5.307a800.534 800.534 0 0 1 26.657-4.766c9.16-1.611 18.394-3.123 27.656-4.524a939.824 939.824 0 0 1 27.887-4.136c9.257-1.293 18.447-2.364 27.518-3.171 9.028-.76 17.918-1.189 26.636-1.212 8.635.138 17.065.753 25.276 1.906 8.092 1.417 15.921 3.44 23.45 6.106" opacity=".37"/>
    <path stroke-dasharray="4 7" d="M832.564 208.952c6.747 3.29 12.939 7.063 18.58 11.29a106.898 106.898 0 0 1 14.718 14.664 111.403 111.403 0 0 1 10.805 17.19 114.444 114.444 0 0 1 6.915 18.619 115.508 115.508 0 0 1 3.212 18.977c.457 6.264.428 12.46-.046 18.575-.431 6.036-1.236 12.007-2.317 17.921-.879 5.875-1.91 11.76-2.981 17.678-.663 5.98-1.208 12.102-1.536 18.41.298 6.496.967 13.272 2.075 20.374 1.864 7.385 4.212 15.155 7.047 23.289 3.516 8.41 7.405 17.179 11.559 26.238 4.516 9.186 9.001 18.537 13.23 27.943 4.067 9.263 7.467 18.393 9.971 27.247 1.73 8.414 2.177 16.364 1.15 23.76-2.193 6.758-6.01 12.88-11.502 18.34-6.628 4.848-14.57 9.036-23.564 12.668-9.584 3.314-19.768 6.33-30.26 9.156-10.39 2.87-20.656 5.784-30.558 8.803-9.272 3.346-17.924 6.913-25.864 10.715-7.047 4.214-13.354 8.634-18.936 13.205-4.737 4.9-8.88 9.814-12.54 14.635-4.425 7.317-11.752 20.09-15.219 25.016-7.545 5.581-21.643 4.832-27.394 1.466-4.072-2.69-8.361-6.009-12.85-9.888-4.67-3.898-9.53-8.205-14.572-12.825-5.237-4.43-10.67-9.022-16.284-13.678a411.088 411.088 0 0 0-18.206-12.531 291.793 291.793 0 0 0-20.292-9.94 364.699 364.699 0 0 0-21.818-6.81c-7.513-1.59-14.954-3.083-22.293-4.533-7.503-1.21-14.858-2.544-22.012-4.064-7.243-1.501-14.253-3.33-20.996-5.55-6.757-2.364-13.221-5.228-19.384-8.612a118.229 118.229 0 0 1-17.365-12.658c-5.37-5.091-10.386-10.731-15.038-16.88-4.515-6.425-8.635-13.31-12.346-20.574a196.593 196.593 0 0 1-9.176-23.174 192.134 192.134 0 0 1-5.367-24.406c-.91-8.165-1.227-16.273-.93-24.255.648-7.873 1.916-15.57 3.804-23.026a142.31 142.31 0 0 1 8.278-21.255c3.494-6.728 7.434-13.227 11.751-19.5a334.472 334.472 0 0 1 13.573-18.305c4.503-6.048 9.039-12.01 13.551-17.907a1228.993 1228.993 0 0 0 11.82-17.748c3.35-5.953 6.547-11.728 9.609-17.291 2.785-5.747 5.558-11.238 8.354-16.457 4.139-7.8 13.567-21.714 19.169-27.716 4.097-3.837 8.624-7.271 13.58-10.318 5.279-2.996 11.004-5.616 17.148-7.898 6.492-2.253 13.383-4.212 20.623-5.892 7.545-1.698 15.401-3.172 23.502-4.446a612.22 612.22 0 0 1 25.554-3.535 831.21 831.21 0 0 1 26.732-2.935 776.767 776.767 0 0 1 27.1-2.25 517.11 517.11 0 0 1 26.721-1.1c8.758-.07 17.332.183 25.69.795 8.28.776 16.302 1.97 24.033 3.642 7.602 1.91 14.884 4.351 21.792 7.341" opacity=".93"/>
    <path stroke-dasharray="8 3" d="M835.382 223.992c6.098 3.492 11.598 7.386 16.519 11.635a94.58 94.58 0 0 1 12.479 14.391 96.23 96.23 0 0 1 8.505 16.445 102.023 102.023 0 0 1 4.758 17.636 114.23 114.23 0 0 1 1.407 18.014c-.02 5.998-.437 11.97-1.22 17.9-.69 5.918-1.63 11.82-2.76 17.72-.882 5.938-1.837 11.937-2.76 18.015-.514 6.219-.88 12.614-1.01 19.217.42 6.834 1.182 13.954 2.306 21.398 1.749 7.71 3.873 15.763 6.34 24.152 2.997 8.617 6.23 17.515 9.57 26.62 3.573 9.184 7.005 18.443 10.13 27.662 2.896 9.039 5.137 17.84 6.541 26.302.704 7.995.27 15.471-1.45 22.323-2.717 6.221-6.843 11.752-12.418 16.58-6.532 4.21-14.186 7.721-22.75 10.634-9.101 2.584-18.745 4.79-28.691 6.745-9.921 1.971-19.788 3.894-29.406 5.855-9.135 2.244-17.786 4.64-25.853 7.216-7.348 2.972-14.039 6.123-20.086 9.397-7.665 5.457-19.475 16.493-24.061 21.59-12.523 10.928-25.767 11.045-30.286 7.808-4.903-4.072-15.953-14.85-22.119-21.188-4.386-4.16-8.995-8.508-13.84-12.97a407.286 407.286 0 0 0-16.023-12.325 320.611 320.611 0 0 0-18.398-10.516 449.76 449.76 0 0 0-20.222-8.155c-7.024-2.16-14.043-4.27-20.988-6.368-7.124-1.868-14.124-3.86-20.973-6.015-6.93-2.1-13.657-4.487-20.153-7.2-6.481-2.81-12.692-6.03-18.608-9.678a126.288 126.288 0 0 1-16.506-12.928c-5.038-4.998-9.688-10.46-13.937-16.331-4.085-6.076-7.732-12.525-10.931-19.27a160.362 160.362 0 0 1-7.42-21.285 152.108 152.108 0 0 1-3.395-22.11 132.734 132.734 0 0 1 1.015-21.747 123.384 123.384 0 0 1 5.513-20.498 134.239 134.239 0 0 1 9.599-18.8c3.844-5.946 8.082-11.69 12.65-17.226 4.55-5.547 9.32-10.954 14.229-16.226 4.706-5.4 9.45-10.73 14.171-16.003 4.38-5.5 8.582-10.853 12.583-16.073 3.659-5.447 7.155-10.75 10.517-15.876 4.62-7.881 13.682-22.655 18.426-29.404 5.033-6.46 16.817-17.548 23.743-22.136 5.01-2.888 10.415-5.409 16.198-7.572 6.094-2.132 12.551-3.94 19.348-5.462 7.074-1.512 14.454-2.76 22.078-3.794a483.952 483.952 0 0 1 24.142-2.547c8.39-.692 16.88-1.225 25.411-1.579a617.247 617.247 0 0 1 25.83-.615c8.612.005 17.118.215 25.471.684 8.32.542 16.452 1.38 24.33 2.542 7.797 1.312 15.309 3 22.486 5.102 7.044 2.315 13.719 5.082 19.969 8.314" opacity=".09"/>
    <path stroke-dasharray="2 6" d="M835.88 237.808c5.428 3.624 10.275 7.565 14.527 11.775 5.834 6.767 14.39 21.695 17.169 29.677 2.08 8.274 3.695 25.258 3.393 33.865-.308 5.783-.953 11.567-1.867 17.363-.786 5.841-1.752 11.724-2.847 17.648-.829 6.034-1.678 12.164-2.456 18.433a349.257 349.257 0 0 0-.7 19.96 330.715 330.715 0 0 0 2.143 22.205c1.479 7.943 3.238 16.18 5.224 24.682 2.357 8.69 4.824 17.584 7.309 26.59 2.596 9.04 4.997 18.058 7.028 26.955 1.797 8.674 2.97 17.05 3.37 25.007-.199 7.49-1.407 14.41-3.724 20.678-3.154 5.65-7.504 10.58-13.075 14.775-6.39 3.603-13.707 6.474-21.805 8.72-8.557 1.908-17.608 3.39-26.928 4.564-9.36 1.143-18.71 2.17-27.891 3.172-8.82 1.219-17.266 2.538-25.246 3.965-7.402 1.79-14.256 3.711-20.526 5.75-8.206 3.608-21.228 11.108-26.35 14.626-12.815 7.404-24.428 6.194-28.048 3.132-3.895-3.75-12.792-13.627-17.864-19.472a1017.563 1017.563 0 0 0-11.682-12.115 425.202 425.202 0 0 0-13.977-11.966 361.589 361.589 0 0 0-16.473-10.836 535.858 535.858 0 0 0-18.443-9.206c-6.474-2.642-12.96-5.269-19.425-7.905-6.622-2.441-13.167-4.987-19.585-7.688a226.91 226.91 0 0 1-18.898-8.622c-6.09-3.18-11.91-6.695-17.432-10.562a131.879 131.879 0 0 1-15.305-13.08 126.425 126.425 0 0 1-12.604-15.686 127.852 127.852 0 0 1-9.39-17.878 126.744 126.744 0 0 1-5.734-19.283 118.75 118.75 0 0 1-1.667-19.68 108.95 108.95 0 0 1 2.622-19.13 106.349 106.349 0 0 1 6.827-17.86c3.026-5.645 6.548-11.087 10.498-16.3 4.066-5.152 8.482-10.122 13.203-14.916 4.682-4.824 9.56-9.527 14.57-14.122 4.83-4.74 9.696-9.427 14.55-14.098 4.551-4.883 8.945-9.67 13.161-14.352 3.895-4.919 7.642-9.722 11.264-14.407 5.038-7.23 14.813-20.946 19.809-27.277 5.177-6.122 16.877-16.719 23.572-21.14 4.778-2.78 9.902-5.203 15.35-7.29 5.712-2.04 11.753-3.752 18.09-5.159 6.595-1.367 13.465-2.468 20.57-3.297 7.327-.827 14.854-1.42 22.521-1.798 7.841-.362 15.776-.53 23.755-.506 8.086.03 16.169.268 24.197.715 8.063.484 16.015 1.185 23.806 2.14 7.781 1.035 15.34 2.34 22.644 3.955 7.224 1.741 14.135 3.824 20.705 6.252 6.421 2.629 12.464 5.637 18.065 9.027" opacity=".52"/>
    <path stroke-dasharray="8 3" d="M834.765 250.519c6.903 5.652 17.644 18.365 21.503 25.326 4.375 9.842 6.718 20.188 7.282 30.819.38 10.972-.622 22.148-2.593 33.458-1.462 11.716-3.267 23.836-4.966 36.493-.393 13.453-.135 27.855.952 43.225 2.523 16.276 5.596 33.402 8.706 50.886 3.206 17.37 5.053 34.07 4.556 49.22-1.012 6.913-2.866 13.227-5.669 18.865-3.488 5.055-7.985 9.382-13.5 12.961-6.183 3.023-13.137 5.3-20.722 6.946-7.983 1.295-16.385 2.14-25.03 2.624-17.374.865-34.404 1.328-50.202 1.868-14.017 1.766-26.124 3.91-36.236 6.164-11.557 4.662-27.041 9.355-33.008 7.324-3.829-2.274-7.975-6.552-12.58-12.65-5.138-5.922-11.08-13.134-17.892-21.255-5.788-5.635-19.124-16.92-26.677-22.44a694.555 694.555 0 0 0-16.57-9.954 3961.754 3961.754 0 0 1-17.616-9.096c-12.212-5.6-24.047-11.799-35.181-18.728-11.094-6.946-21.08-15.038-29.686-24.213-8.028-9.499-14.381-20.04-18.868-31.277-3.526-11.301-5.001-22.93-4.322-34.42 1.777-11.146 5.678-21.824 11.6-31.714 6.669-9.517 14.918-18.346 24.431-26.454 4.714-4.103 9.612-8.115 14.644-12.053 4.85-4.079 9.766-8.142 14.683-12.191 4.656-4.283 9.164-8.484 13.527-12.623a1496.84 1496.84 0 0 0 11.86-12.886c7.028-9.015 13.97-17.42 21.057-25.005 7.059-7.846 14.87-14.54 23.563-19.971 9.372-5.273 19.923-9.215 31.503-11.913 12.45-2.456 25.834-3.817 39.815-4.182 14.589-.217 29.456.46 44.171 1.993 14.863 1.777 29.2 4.51 42.576 8.265 6.58 2.067 12.842 4.43 18.753 7.096 5.79 2.84 11.187 6.003 16.136 9.492" opacity=".19"/>
    <path stroke-dasharray="2 8" d="M832.733 262.424c8.199 7.55 14.284 15.856 18.38 24.747 3.536 9.42 5.266 19.31 5.443 29.484.033 10.593-1.09 21.494-2.99 32.67-1.448 11.704-3.132 23.947-4.71 36.811-.531 13.681-.608 28.242-.132 43.625 1.48 16.115 3.184 32.801 4.649 49.532 1.356 16.456 1.366 32-.712 45.83-3.828 12.059-10.722 21.545-20.926 28.08-12.345 4.448-26.845 6.294-42.558 6.264-16.006-.402-31.814-1.436-46.633-2.62a1224.82 1224.82 0 0 0-35.505.07c-12.047 1.66-28.186 2.193-33.95-.7-3.53-2.44-7.149-6.535-11.044-12.189-4.36-5.41-9.388-12.022-15.183-19.595-6.734-6.772-14.478-14.1-23.202-21.843-9.788-6.643-19.98-13.417-30.28-20.31-10.88-6.244-21.441-13.014-31.335-20.378-9.865-7.236-18.663-15.332-26.118-24.211-6.898-8.963-12.161-18.635-15.59-28.707-2.552-9.98-3.124-20.066-1.643-29.874 2.418-9.436 6.807-18.382 13.041-26.596 6.818-7.895 15.084-15.195 24.494-21.878 9.217-6.942 18.994-13.713 29.027-20.402a1349.863 1349.863 0 0 0 25.968-22.224c7.41-8.042 14.726-15.617 22.104-22.513 7.263-7.234 15.115-13.47 23.628-18.58 9.003-4.996 18.958-8.764 29.752-11.302 11.483-2.283 23.769-3.428 36.539-3.54 13.281.14 26.791 1.231 40.126 3.23 13.444 2.3 26.388 5.54 38.402 9.757 11.67 4.695 22.122 10.476 30.958 17.362" opacity=".13"/>
    <path stroke-dasharray="1 4" d="M830.302 273.981c7.072 7.43 12.241 15.5 15.63 24.08 2.885 9.052 4.178 18.553 4.14 28.39-.186 10.275-1.34 20.966-3.125 32.043-1.432 11.659-3.085 23.927-4.677 36.837-.839 13.67-1.406 28.116-1.686 43.202.361 15.614.69 31.538.613 47.246-.327 15.275-1.913 29.474-5.288 41.865-4.818 10.73-12.118 18.942-22.072 24.31-11.65 3.449-24.974 4.36-39.21 3.381-14.577-1.439-29.005-3.69-42.634-6.276-12.706-1.786-24.065-3.483-33.884-5.114-8.556-.613-15.708-1.465-21.59-2.83-7.151-1.695-18.04-10.313-23.18-17.688-3.852-5.044-8.212-11.175-13.194-18.236-5.83-6.405-12.52-13.478-20.055-21.098-8.508-6.759-17.356-13.75-26.277-20.93-9.48-6.62-18.635-13.687-27.154-21.197-8.518-7.298-16.013-15.206-22.212-23.595-5.736-8.304-9.902-17.037-12.323-25.912-1.677-8.653-1.474-17.233.604-25.43 2.857-7.832 7.517-15.15 13.842-21.779 6.75-6.39 14.829-12.26 23.968-17.627 8.923-5.656 18.434-11.205 28.264-16.742a1551.482 1551.482 0 0 0 26.158-18.94c7.675-7.035 15.271-13.707 22.878-19.853 7.446-6.526 15.314-12.196 23.676-16.902 8.684-4.643 18.107-8.15 28.175-10.506 10.563-2.114 21.78-3.096 33.365-3.015 11.958.352 24.09 1.699 36.035 3.998 11.984 2.599 23.478 6.153 34.108 10.631 10.286 4.905 19.434 10.803 27.105 17.687" opacity=".51"/>
    <path stroke-dasharray="6 2" d="M827.827 285.684c6.02 7.242 10.38 15.064 13.186 23.358 2.337 8.718 3.309 17.89 3.138 27.447-.327 9.992-1.484 20.48-3.2 31.423-1.475 11.503-3.186 23.652-4.946 36.393a2601.958 2601.958 0 0 0-3.516 41.874c-.743 14.809-1.707 29.674-3.161 44.096-1.784 13.894-4.687 26.592-9.07 37.475-5.554 9.338-13.07 16.298-22.642 20.562-10.891 2.542-23.005 2.67-35.772.941-13.092-2.235-26.06-5.409-38.365-9.08-11.691-3.07-22.277-6.193-31.546-9.293-8.332-2.205-15.394-4.528-21.256-7.178-7.352-3.36-18.316-13.451-23.156-20.716-3.562-4.843-7.442-10.626-11.765-17.266a1499.372 1499.372 0 0 0-17.236-20.278c-7.294-6.718-14.8-13.729-22.327-20.949-8.042-6.725-15.742-13.825-22.827-21.208-7.118-7.13-13.266-14.64-18.213-22.39-4.565-7.563-7.675-15.285-9.183-22.937-.903-7.373-.1-14.528 2.416-21.22 3.113-6.344 7.84-12.175 14.062-17.374 6.535-5.036 14.264-9.614 22.967-13.779 8.508-4.483 17.616-8.908 27.117-13.345a1864.774 1864.774 0 0 0 25.91-15.71c7.809-5.987 15.568-11.71 23.322-17.013 7.554-5.728 15.407-10.754 23.61-14.928 8.379-4.193 17.3-7.366 26.693-9.479 9.724-1.911 19.918-2.734 30.367-2.517 10.698.492 21.485 1.987 32.053 4.43 10.542 2.755 20.626 6.44 29.9 11.023 8.938 4.953 16.842 10.84 23.44 17.638" opacity=".93"/>
    <path stroke-dasharray="3 8" d="M825.401 298.004a72.036 72.036 0 0 1 11.015 22.577c1.866 8.379 2.565 17.24 2.28 26.536-.458 9.686-1.645 19.901-3.359 30.608-1.585 11.21-3.464 23.008-5.479 35.327a6465.941 6465.941 0 0 1-5.457 39.663c-1.776 13.696-3.877 27.247-6.488 40.188-2.966 12.348-6.892 23.461-12 32.803-6.022 7.956-13.56 13.689-22.633 16.936-10.07 1.736-20.98 1.223-32.307-1.05-11.623-2.811-23.097-6.63-34.022-11.052-10.542-4.004-20.172-8.19-28.705-12.418-7.878-3.473-14.65-7.03-20.355-10.753-7.378-4.858-18.44-16.547-23.113-23.875-3.385-4.8-6.916-10.365-10.705-16.647a9626.158 9626.158 0 0 1-14.74-19.434 917.865 917.865 0 0 1-18.551-20.453c-6.636-6.619-12.908-13.502-18.571-20.536-5.742-6.753-10.571-13.703-14.307-20.667-3.465-6.735-5.605-13.423-6.312-19.883-.248-6.164 1.018-11.996 3.79-17.326 3.222-5.028 7.87-9.548 13.837-13.488 6.171-3.848 13.43-7.3 21.585-10.396 7.978-3.435 16.568-6.83 25.616-10.241a3265.911 3265.911 0 0 0 25.267-12.587c7.793-4.931 15.582-9.667 23.35-14.09 7.56-4.849 15.347-9.117 23.342-12.67a119.404 119.404 0 0 1 25.253-8.18c8.94-1.65 18.193-2.284 27.566-1.919a141.445 141.445 0 0 1 28.28 4.68c9.183 2.78 17.912 6.472 25.91 11.052 7.664 4.874 14.415 10.65 20.013 17.295" opacity=".48"/>
    <path stroke-dasharray="6 5" d="M822.94 311.272c4.213 6.704 7.192 13.967 9.026 21.703 1.45 8.01 1.88 16.537 1.469 25.504-.618 9.313-1.89 19.155-3.673 29.456-1.762 10.704-3.861 21.93-6.2 33.567a1352.142 1352.142 0 0 1-7.29 36.603c-2.649 12.35-5.67 24.406-9.188 35.72-3.858 10.714-8.497 20.204-14.061 28.01-6.252 6.588-13.615 11.161-22.087 13.502-9.213 1.024-18.94.02-28.867-2.628-10.2-3.17-20.215-7.376-29.738-12.238-9.313-4.611-17.893-9.51-25.564-14.508-7.235-4.406-13.56-8.888-18.958-13.457-5.051-3.995-9.355-8.25-13.002-12.83-3.587-4.165-6.804-8.815-9.747-13.997-3.24-4.855-6.491-10.277-9.829-16.282a1032.645 1032.645 0 0 1-12.495-18.59 563.796 563.796 0 0 1-15.036-19.535c-5.324-6.332-10.243-12.8-14.576-19.289-4.442-6.232-8.06-12.47-10.682-18.59-3.108-8.694-2.723-24.246.979-30.693 3.2-3.893 7.644-7.292 13.238-10.157 5.712-2.84 12.399-5.334 19.93-7.511 7.357-2.527 15.352-5 23.84-7.499 8.088-3.203 16.186-6.412 24.208-9.612 7.635-3.888 15.294-7.63 22.948-11.117 7.445-3.92 15.038-7.371 22.764-10.221 7.715-2.993 15.669-5.213 23.786-6.596a113.057 113.057 0 0 1 24.93-1.18c8.409.702 16.742 2.331 24.792 4.866 7.914 2.738 15.401 6.37 22.215 10.864 6.502 4.715 12.183 10.295 16.867 16.735" opacity=".19"/>
    <path stroke-dasharray="3 7" d="M820.152 325.645c3.435 6.361 5.808 13.282 7.205 20.665 1.048 7.604 1.217 15.713.63 24.257-.793 8.81-2.196 18.106-4.11 27.8-1.963 10.005-4.32 20.418-6.978 31.106-2.654 10.886-5.597 21.93-8.833 32.849-3.31 10.831-7.013 21.252-11.16 30.875-4.445 9.046-9.5 16.92-15.251 23.253-6.244 5.295-13.283 8.797-21.08 10.323-8.32.425-16.902-.941-25.515-3.797-8.823-3.344-17.436-7.694-25.619-12.724-8.082-4.911-15.558-10.177-22.296-15.615-6.484-4.994-12.228-10.085-17.184-15.217-4.76-4.671-8.872-9.472-12.372-14.453-3.527-4.614-6.649-9.52-9.455-14.763-3.076-4.95-6.054-10.3-8.975-16.064a517.881 517.881 0 0 1-10.488-17.715 399.327 399.327 0 0 1-11.862-18.303c-4.126-5.902-7.826-11.818-10.96-17.636-4.548-8.335-9.356-23.663-9.167-30.315 1.577-5.871 10.545-14.969 17.77-18.194 5.204-2.024 11.274-3.717 18.107-5.13 6.707-1.751 14.02-3.436 21.86-5.105a3743.99 3743.99 0 0 1 22.774-6.865c7.326-2.897 14.702-5.663 22.07-8.214 7.196-2.98 14.493-5.564 21.846-7.655 7.29-2.27 14.709-3.895 22.176-4.79a102.715 102.715 0 0 1 22.42-.257c7.398.854 14.654 2.55 21.578 5.088 6.783 2.684 13.128 6.217 18.874 10.565a66.365 66.365 0 0 1 13.995 16.03" opacity=".49"/>
    <path stroke-dasharray="4 2" d="M816.666 341.016c2.733 5.986 4.552 12.49 5.514 19.435.672 7.113.569 14.688-.22 22.65-.979 8.165-2.548 16.742-4.595 25.635-2.163 9.089-4.74 18.467-7.661 27.98-2.983 9.602-6.304 19.218-9.932 28.598-3.75 9.204-7.867 17.938-12.359 25.874-4.734 7.398-9.935 13.71-15.612 18.664-6.035 4.094-12.604 6.626-19.66 7.47-7.41-.061-14.878-1.676-22.268-4.578-7.55-3.365-14.853-7.664-21.768-12.62a175.74 175.74 0 0 1-19.074-15.838c-5.66-5.262-10.732-10.637-15.156-16.06-4.34-5.068-8.13-10.212-11.404-15.44a131.664 131.664 0 0 1-8.884-15.253c-2.857-5.036-5.535-10.303-8.064-15.821a344.978 344.978 0 0 1-8.628-16.771c-3.284-5.664-6.327-11.314-9.06-16.86-4.4-8.03-10.924-23.013-12.599-29.723.516-11.055 10.486-22.696 17.036-24.866 4.661-1.368 10.094-2.437 16.203-3.232 6.008-1.11 12.596-2.136 19.707-3.086 6.893-1.51 13.93-2.979 21.008-4.4 6.863-1.97 13.8-3.807 20.746-5.456 6.79-2.048 13.653-3.772 20.505-5.083 6.786-1.51 13.607-2.487 20.396-2.86 6.73-.416 13.424-.152 19.97.836 6.449 1.036 12.707 2.823 18.62 5.378 5.744 2.642 11.067 6.05 15.835 10.233 4.484 4.283 8.33 9.352 11.404 15.194" opacity=".85"/>
    <path stroke-dasharray="4 9" d="M812.09 357.033c3.896 11.177 4.688 24.294 2.925 38.624-2.504 14.844-7.08 30.971-13.134 47.296-6.45 16.333-14.298 31.94-23.272 44.973-9.672 11.157-20.838 18.086-33.136 19.388-13.175-1.515-25.928-7.8-37.407-17.027-11.524-9.475-21.333-20.268-29.013-31.357-7.654-10.093-13.684-20.49-18.178-31.031a225.148 225.148 0 0 1-13.955-31.089c-5.405-10.372-9.47-20.24-11.876-29.053-3.283-11.934 3.72-27.465 14.66-30.606 8.234-1.912 18.96-2.914 31.755-3.228a509.374 509.374 0 0 1 37.943-5.217c12.383-2.679 24.976-4.01 37.141-3.552 11.89.113 23.296 2.639 33.38 7.754 9.443 5.273 17.125 13.304 22.167 24.125" opacity=".52"/>
    <path stroke-dasharray="5 4" d="M806.061 373.124c2.828 10.142 2.949 21.876.838 34.515-2.756 12.915-7.432 26.661-13.517 40.225-6.477 13.338-14.246 25.727-22.93 35.67-9.147 8.409-19.327 13.259-30.088 13.5-11.269-1.92-21.877-7.797-31.28-16.196-9.496-8.79-17.61-18.91-24.035-29.407-6.552-9.903-11.784-20.044-15.648-30.096-4.585-9.575-8.388-19.364-11.224-29.103-3.995-9.467-6.616-18.076-7.743-25.443-1.496-9.983 6.226-21.96 15.923-23.84 7.167-1.194 16.453-1.458 27.553-.916 10.758-.949 22.152-1.38 33.544-1.297 11.056-1.08 22.192-1.04 32.785.453 10.29 1.072 19.942 4.112 28.256 9.276 7.745 5.194 13.833 12.73 17.566 22.659" opacity=".3"/>
    <path stroke-dasharray="2 7" d="M798.39 388.53c1.891 8.984 1.47 19.142-.87 29.843-2.859 10.806-7.414 22.02-13.23 32.767-6.143 10.426-13.41 19.789-21.372 26.984-8.247 5.996-17.175 9.103-26.343 8.542-9.422-2.131-18.09-7.423-25.666-14.797-7.666-7.805-14.21-16.875-19.425-26.363-5.4-9.205-9.736-18.644-12.894-27.888-3.732-8.968-6.659-17.905-8.585-26.488-2.766-8.446-4.244-15.815-4.446-21.88-.161-8.25 7.792-17.44 16.216-18.47 6.151-.673 14.033-.42 23.417.725 9.208-.002 18.962.616 28.694 1.785 9.52.231 19.005 1.44 27.893 3.78 8.63 1.934 16.569 5.41 23.195 10.546 6.171 5.079 10.833 12.033 13.416 20.914" opacity=".45"/>
    <path stroke-dasharray="4 4" d="M789.033 402.412c1.117 7.7.31 16.117-2.073 24.746-2.764 8.634-6.971 17.308-12.22 25.352-5.477 7.724-11.882 14.397-18.796 19.229-7.05 3.99-14.556 5.702-22.094 4.615-7.636-2.162-14.555-6.738-20.52-12.967-6.039-6.613-11.176-14.353-15.267-22.518-4.275-8.088-7.688-16.425-10.129-24.548-2.86-7.986-4.964-15.838-6.12-23.184-2.051-10.377-1.15-25.088 2.153-29.202 4.452-2.952 20.037-3.496 30.962-1.701 7.6.659 15.616 2.023 23.56 3.937 7.821 1.221 15.537 3.275 22.66 6.207 6.919 2.568 13.15 6.303 18.196 11.259 4.707 4.866 8.084 11.128 9.688 18.775" opacity=".64"/>
    <path stroke-dasharray="4 5" d="M778.196 413.97c.666 12.579-4.555 26.373-13.234 37.795-9.268 10.403-21.174 16.377-33.015 14.408-11.883-4.668-21.333-15.806-27.371-28.98-6.591-13.284-10.76-27.465-11.485-39.523-2.196-12.04-.531-20.024 4.413-23.401 4.556-3.83 13.246-3.96 25.24-.234 11.973 1.557 24.833 6.036 35.624 12.617 10.31 5.54 17.862 14.753 19.828 27.317" opacity=".39"/>
    <path stroke-dasharray="9 0" d="M766.237 422.473c-.037 9.55-4.327 19.074-11.013 26.283-7.003 6.542-15.854 9.675-24.557 7.349-8.617-3.804-15.422-12.122-19.737-21.954-4.633-10.07-7.372-20.953-7.402-30.176.165-12.278 12.728-20.649 24.803-17.3 8.797 2.051 17.893 6.68 25.24 12.823 7.099 5.499 11.963 13.387 12.666 22.975" opacity=".27"/>
    <path stroke-dasharray="3 1" d="M753.709 427.448c-1.113 12.749-12.469 22.172-23.838 18.669-11.06-6.045-17.928-22.398-16.884-34.833-.385-12.61 7.24-17.058 18.425-11.462 11.485 3.296 22.072 14.693 22.297 27.626" opacity=".54"/>
  </g>
</svg>
